<svg preserveAspectRatio="xMidYMid meet" data-bbox="200.9 209.416 391.1 199.605" viewBox="200.9 209.416 391.1 199.605" xmlns="http://www.w3.org/2000/svg" data-type="color" role="presentation" aria-hidden="true">
    <g>
        <path d="M592 326.2c-1.4.6-46.8 19-78.5 1.7-32.8-17.9-53.7-54.6-83.4-82.9-29-27.6-108-64.5-186.5 1.2L231.8 258c28.1-3.9 112.8-8.9 170 61-3.1-3.8-61.3-69.7-168.1-49.3-22.5 4.3-32.8 19.2-32.8 19.2s63.9 9.4 102.2 43.9c40.3 36.3 66 83 156.5 75.4 68.9-5.8 121.4-67.9 130.9-80 .8-.9 1.3-1.6 1.4-1.9l.1-.1z" fill="#ffffff" data-color="1"></path>
    </g>
</svg>