<svg preserveAspectRatio="xMidYMid meet" data-bbox="0 12.966 512.001 486.067" viewBox="0 12.966 512.001 486.067" xmlns="http://www.w3.org/2000/svg" data-type="shape" role="presentation" aria-hidden="true">
    <g>
        <path d="M399.449 218.52c-1.371 0-2.766.031-4.174.082-13.547-13.964-30.427-24.084-48.823-29.544 4.221-44.13-15.297-86.352-34.62-116.314-2.333-3.618-7.192-4.592-10.748-2.164a7.65 7.65 0 0 0-2.112 10.472c17.652 27.361 35.487 65.464 32.418 104.644a112.07 112.07 0 0 0-16.906-1.29c-17.03 0-33.185 3.809-47.669 10.609v-13.707l36.806-36.806c2.964-2.964 3.264-7.832.391-10.883a7.656 7.656 0 0 0-10.992-.169l-26.206 26.206v-41.013c0-4.192-3.229-7.847-7.419-7.972a7.656 7.656 0 0 0-7.891 7.652v41.333l-26.205-26.206c-2.989-2.99-7.836-2.99-10.825 0s-2.99 7.837 0 10.825l37.031 37.031v22.412a113.44 113.44 0 0 0-33.706 35.681c-1.167-31.699-10.915-58.823-29.218-81.023-.186-.225-.38-.445-.568-.669 8.801-58.414 55.437-110.291 71.161-126.35 4.083 4.155 10.237 10.702 17.238 19.108 2.659 3.193 7.388 3.673 10.64 1.087l.003-.002c3.368-2.678 3.856-7.6 1.103-10.908-13.154-15.805-23.334-25.216-23.811-25.655a7.655 7.655 0 0 0-10.365 0c-2.743 2.523-63.257 58.88-79.015 129.265-23.924-21.434-57.739-36.8-99.075-44.833-37.261-7.243-67.211-6.09-68.467-6.038a7.654 7.654 0 0 0-7.328 7.328c-.052 1.256-1.203 31.206 6.037 68.466 9.701 49.922 30.089 88.889 58.957 112.689a124.93 124.93 0 0 0 10.79 7.934C28.073 329.381 1.837 387.067.68 389.648a7.654 7.654 0 0 0 3.28 9.83c3 1.659 64.07 34.953 129.409 34.95 9.32-.001 18.731-.694 28.071-2.237 17.557 39.347 57.047 66.842 102.842 66.842 43.497 0 81.307-24.805 100.038-61.01 11.291 3.715 23.074 5.601 35.13 5.601 19.822 0 39.032-5.135 56.034-14.919 3.825-2.202 4.928-7.225 2.458-10.883-2.264-3.351-6.718-4.322-10.227-2.311-14.65 8.396-31.193 12.802-48.265 12.802a96.85 96.85 0 0 1-29.014-4.427 112.044 112.044 0 0 0 6.399-37.405c0-44.376-25.817-82.831-63.218-101.147 15.704-29.525 45.347-48.95 79.027-51.272 2.302-.154 4.591-.233 6.806-.233 53.619 0 97.241 43.623 97.241 97.241 0 21.844-7.285 42.857-20.645 59.914-2.485 3.173-2.144 7.712.839 10.424l.002.002c3.309 3.008 8.456 2.531 11.214-.989 15.466-19.744 23.9-44.069 23.9-69.351-.001-62.059-50.492-112.55-112.552-112.55zm-324.58 51.564c-32.904-27.102-47.329-71.227-53.635-103.471-4.905-25.078-5.803-47.095-5.901-58 10.837.094 32.65.979 57.638 5.834 58.61 11.39 88.796 35.471 103.797 53.667 23.43 28.421 30.948 66.568 22.424 113.536l-23.404-23.404V190.24c0-4.228-3.427-7.655-7.655-7.655s-7.655 3.427-7.655 7.655v52.695l-33.697-33.697v-52.371c0-4.228-3.427-7.655-7.655-7.655s-7.655 3.427-7.655 7.655v37.061l-29.227-29.227a7.653 7.653 0 0 0-10.825 0 7.653 7.653 0 0 0 0 10.825l29.227 29.227h-37.06c-4.228 0-7.655 3.427-7.655 7.655s3.427 7.655 7.655 7.655h52.37l33.697 33.697H96.955c-4.228 0-7.655 3.427-7.655 7.655s3.427 7.655 7.655 7.655h68.006l23.404 23.404c-46.947 8.522-85.08 1.014-113.496-22.39zm57.077 73.153l-46.03-22.996a7.657 7.657 0 0 0-10.27 3.426 7.657 7.657 0 0 0 3.426 10.27l32.334 16.153-52.884 17.649a7.655 7.655 0 0 0 4.846 14.522l54.114-18.058-16.972 33.971a7.657 7.657 0 0 0 6.841 11.078 7.655 7.655 0 0 0 6.854-4.235l23.814-47.668 19.495-6.506a112.097 112.097 0 0 0-5.786 35.638c0 10.769 1.523 21.188 4.36 31.056-57.058 8.193-118.5-18.557-138.233-28.159 8.534-16.659 33.808-61.482 72.358-91.456 18.376 8.84 39.212 13.291 62.411 13.291 9.659 0 19.738-.79 30.203-2.328a113.189 113.189 0 0 0-16.954 23.03l-33.927 11.322zm229.577 43.245c0 53.619-43.622 97.241-97.241 97.241S167.04 440.1 167.04 386.482c0-53.619 43.623-97.242 97.242-97.242s97.241 43.623 97.241 97.242zM299.37 279.537a112.095 112.095 0 0 0-35.088-5.608c-16.437 0-32.061 3.543-46.153 9.904 6.427-47.435 47.184-84.119 96.353-84.119 22.226 0 43.713 7.665 60.852 21.398-32.651 7.094-60.503 28.353-75.964 58.425z"></path>
        <path d="M293.541 355.422c-19.559 0-35.473 15.913-35.473 35.473s15.913 35.473 35.473 35.473 35.474-15.913 35.474-35.473-15.913-35.473-35.474-35.473zm0 55.635c-11.118 0-20.162-9.045-20.162-20.162 0-11.117 9.044-20.162 20.162-20.162 11.118 0 20.164 9.045 20.164 20.162 0 11.116-9.045 20.162-20.164 20.162z"></path>
        <path d="M397.413 248.657c-22.941 0-40.24 10.444-40.24 24.293s17.299 24.293 40.24 24.293c22.941 0 40.24-10.444 40.24-24.293s-17.3-24.293-40.24-24.293zm19.559 29.24c-5.024 2.565-12.152 4.036-19.56 4.036s-14.536-1.471-19.56-4.036c-3.939-2.012-5.37-4.061-5.37-4.947 0-.886 1.43-2.935 5.37-4.947 5.024-2.565 12.152-4.036 19.56-4.036s14.536 1.471 19.56 4.036c3.94 2.012 5.37 4.061 5.37 4.947 0 .887-1.43 2.935-5.37 4.947z"></path>
    </g>
</svg>