<svg preserveAspectRatio="xMidYMid meet" data-bbox="0 0.282 480.004 480.718" viewBox="0 0.282 480.004 480.718" xmlns:xlink="http://www.w3.org/1999/xlink" xmlns="http://www.w3.org/2000/svg" data-type="color" role="presentation" aria-hidden="true"><defs><style>#comp-jty1oszj svg [data-color="1"] {fill: #B8B8B8;}
#comp-jty1oszj svg [data-color="2"] {fill: #B8B8B8;}</style></defs>
    <g>
        <defs>
            <path id="57f2ade4-ccfe-4334-b39e-d5f0d206bb0b_comp-jty1oszj" d="M480.004.282V480.94H0V.282h480.004z" fill="#000000" data-color="1"></path>
        </defs>
        <clipPath id="9abf908a-e4a8-463a-b81a-c1399988db62_comp-jty1oszj">
            <use xlink:href="#57f2ade4-ccfe-4334-b39e-d5f0d206bb0b_comp-jty1oszj" overflow="visible"></use>
        </clipPath>
        <path d="M255.41 14.151l-9.272-11.128a8.256 8.256 0 0 0-12.288 0l-9.272 11.12a140.798 140.798 0 0 0-32.584 90c.026 26.499 21.501 47.974 48 48 26.499-.026 47.974-21.501 48-48a140.803 140.803 0 0 0-32.584-89.992m-15.416 121.992c-17.673 0-32-14.327-32-32a124.868 124.868 0 0 1 28.872-79.76l3.128-3.744 3.128 3.752a124.796 124.796 0 0 1 28.872 79.752c0 17.673-14.327 32-32 32z" clip-path="url(#9abf908a-e4a8-463a-b81a-c1399988db62_comp-jty1oszj)" fill="#1a1413" data-color="2"></path>
        <path d="M379.994 56.143c-46.37.053-83.947 37.63-84 84 0 19.882 16.118 36 36 36s36-16.118 36-36c0-6.627 5.373-12 12-12 19.882 0 36-16.118 36-36s-16.118-36-36-36m0 56c-15.464 0-28 12.536-28 28 0 11.046-8.954 20-20 20s-20-8.954-20-20c.044-37.537 30.463-67.956 68-68 11.046 0 20 8.954 20 20s-8.954 20-20 20z" fill="#1a1413" data-color="2"></path>
        <path d="M168.695 93.227a8.006 8.006 0 0 0-3.573.516l-2.576.992 3.28-13.12c2.569-10.288-3.688-20.711-13.976-23.28a19.195 19.195 0 0 0-9.304 0l-13.128 3.288.992-2.584a8 8 0 0 0-1.072-7.696 7.889 7.889 0 0 0-7.072-3.2 82.9 82.9 0 0 0-50.184 24.688c-28.088 28.112-33.144 68.704-11.288 90.512a48.28 48.28 0 0 0 34.904 13.672 64.17 64.17 0 0 0 9.144-.664 83.7 83.7 0 0 0 46.464-24.328 82.952 82.952 0 0 0 24.688-50.152 8.001 8.001 0 0 0-7.299-8.644m-46.301-13.396l24.056-6a3.2 3.2 0 0 1 3.88 3.88l-6.008 24-35.64 13.736 13.712-35.616zm17.6 60.904a67.564 67.564 0 0 1-37.424 19.8 34.864 34.864 0 0 1-30.464-8.48c-15.616-15.6-10.512-46.048 11.288-67.912a71.995 71.995 0 0 1 26.768-17.128l-22.92 59.528a8 8 0 0 0 10.352 10.352l59.504-22.928a71.953 71.953 0 0 1-17.104 26.768z" fill="#1a1413" data-color="2"></path>
        <path d="M307.864 200.154a48.003 48.003 0 0 0-33.926 14.054 140.802 140.802 0 0 0-40.6 86.672l-1.344 14.464a8 8 0 0 0 8 8.72h.728l14.4-1.312a140.804 140.804 0 0 0 86.68-40.6 47.67 47.67 0 0 0 14.072-34.008c-.006-26.51-21.5-47.996-48.01-47.99m22.682 70.645l-.04-.032a124.801 124.801 0 0 1-76.8 36l-4.864.448.448-4.864a124.743 124.743 0 0 1 36-76.8c12.635-12.357 32.895-12.133 45.252.502 12.163 12.435 12.164 32.309.004 44.746z" fill="#1a1413" data-color="2"></path>
        <defs>
            <path id="a64994ca-69e5-44e5-b080-382d7be6a91d_comp-jty1oszj" d="M480.004.282V480.94H0V.282h480.004z" fill="#000000" data-color="1"></path>
        </defs>
        <clipPath id="9ce1a0ef-12b4-483c-99a0-8348577c6e55_comp-jty1oszj">
            <use xlink:href="#a64994ca-69e5-44e5-b080-382d7be6a91d_comp-jty1oszj" overflow="visible"></use>
        </clipPath>
        <path d="M195.994 176.143c-19.882 0-36 16.118-36 36 0 6.627-5.373 12-12 12-19.882 0-36 16.118-36 36s16.118 36 36 36c46.37-.053 83.947-37.63 84-84 0-19.882-16.118-36-36-36m-48 104c-11.046 0-20-8.954-20-20s8.954-20 20-20c15.464 0 28-12.536 28-28 0-11.046 8.954-20 20-20s20 8.954 20 20c-.044 37.537-30.463 67.956-68 68z" clip-path="url(#9ce1a0ef-12b4-483c-99a0-8348577c6e55_comp-jty1oszj)" fill="#1a1413" data-color="2"></path>
        <path d="M423.994 138.711c-30.88 0-56 32.296-56 72a82.95 82.95 0 0 0 18.024 52.936 8 8 0 0 0 13.432-1.912l1.12-2.512 6.96 11.6c5.456 9.093 17.249 12.041 26.342 6.586a19.202 19.202 0 0 0 6.586-6.586l6.96-11.6 1.12 2.512a8 8 0 0 0 7.312 4.76c2.36 0 4.6-1.042 6.12-2.848a82.95 82.95 0 0 0 18.024-52.936c0-39.704-25.12-72-56-72m2.744 123.88a3.2 3.2 0 0 1-5.488 0l-12.752-21.248 15.496-34.912 15.496 34.912-12.752 21.248zm30.432-20.848h-.032l-25.864-58.272a8 8 0 0 0-14.624 0l-25.832 58.272a71.843 71.843 0 0 1-6.824-31.032c0-30.872 17.944-56 40-56s40 25.128 40 56a71.843 71.843 0 0 1-6.824 31.032z" clip-path="url(#9ce1a0ef-12b4-483c-99a0-8348577c6e55_comp-jty1oszj)" fill="#1a1413" data-color="2"></path>
        <path d="M175.97 439.383l-1.312-14.4a140.8 140.8 0 0 0-40.6-86.672c-18.744-18.747-49.135-18.749-67.882-.006a48.002 48.002 0 0 0-14.062 33.958 47.686 47.686 0 0 0 14.056 33.936 140.8 140.8 0 0 0 86.672 40.6l14.4 1.312h.728a8 8 0 0 0 8-8.728m-21.648-8.528a124.801 124.801 0 0 1-76.8-36c-12.492-12.496-12.492-32.752 0-45.248l-.04.032c12.496-12.497 32.758-12.498 45.255-.001l.001.001a124.743 124.743 0 0 1 36 76.8l.448 4.864-4.864-.448z" fill="#1a1413" data-color="2"></path>
        <defs>
            <path id="5401aa0c-89b8-4897-b66e-c50fbc7ddcf0_comp-jty1oszj" d="M480.004.282V480.94H0V.282h480.004z" fill="#000000" data-color="1"></path>
        </defs>
        <clipPath id="add21f61-0e77-4d65-850a-3113e5d1dcdb_comp-jty1oszj">
            <use xlink:href="#5401aa0c-89b8-4897-b66e-c50fbc7ddcf0_comp-jty1oszj" overflow="visible"></use>
        </clipPath>
        <path d="M411.994 304.143c-19.882 0-36 16.118-36 36 0 6.627-5.373 12-12 12-19.882 0-36 16.118-36 36s16.118 36 36 36c46.37-.053 83.947-37.63 84-84 0-19.882-16.118-36-36-36m-48 104c-11.046 0-20-8.954-20-20s8.954-20 20-20c15.464 0 28-12.536 28-28 0-11.046 8.954-20 20-20s20 8.954 20 20c-.044 37.537-30.463 67.956-68 68z" clip-path="url(#add21f61-0e77-4d65-850a-3113e5d1dcdb_comp-jty1oszj)" fill="#1a1413" data-color="2"></path>
        <path d="M319.994 427.343c-4.953-37.709-33.758-67.867-71.2-74.544a50.496 50.496 0 0 0-44 13.008c-21.832 21.832-16.8 62.4 11.312 90.504a82.894 82.894 0 0 0 50.184 24.68c.227.012.453.012.68 0a8 8 0 0 0 7.464-10.872l-.992-2.576 13.12 3.28a19.2 19.2 0 0 0 4.736.592c10.604-.04 19.167-8.669 19.127-19.273a19.203 19.203 0 0 0-.575-4.591l-3.28-13.128 2.576.992a8.066 8.066 0 0 0 7.648-1.04 7.999 7.999 0 0 0 3.2-7.032m-26.528 27.152a3.2 3.2 0 0 1-3.048.84l-24-6-13.728-35.648 35.64 13.736 5.976 24.032a3.136 3.136 0 0 1-.84 3.04zm-51.872-62.216a8 8 0 0 0-10.336 10.344l22.92 59.496a71.847 71.847 0 0 1-26.784-17.12c-21.832-21.832-26.904-52.288-11.312-67.88a32.658 32.658 0 0 1 23.68-8.976c2.273.007 4.542.172 6.792.496a67.606 67.606 0 0 1 37.44 19.792 71.925 71.925 0 0 1 17.112 26.776l-59.512-22.928z" clip-path="url(#add21f61-0e77-4d65-850a-3113e5d1dcdb_comp-jty1oszj)" fill="#1a1413" data-color="2"></path>
        <path d="M75.501 245.573l.005-.005c14.228-13.888 14.504-36.68.617-50.908-13.888-14.228-36.68-14.504-50.908-.617a35.43 35.43 0 0 0-.613.613c-32.803 32.804-32.803 85.988 0 118.792a35.696 35.696 0 0 0 25.448 10.576c19.882.013 36.011-16.093 36.024-35.976a35.997 35.997 0 0 0-10.568-25.504c-4.688-4.685-4.69-12.284-.005-16.971m-11.307 56.594c-7.91 7.561-20.37 7.561-28.28 0-26.556-26.555-26.557-69.61-.001-96.167l.001-.002c7.846-7.775 20.509-7.717 28.284.129 7.727 7.797 7.725 20.365-.004 28.159-10.914 10.944-10.914 28.656 0 39.6 7.808 7.811 7.808 20.471 0 28.281z" clip-path="url(#add21f61-0e77-4d65-850a-3113e5d1dcdb_comp-jty1oszj)" fill="#1a1413" data-color="2"></path>
    </g>
</svg>